<mxfile host="Electron" modified="2023-06-04T13:26:35.158Z" agent="Mozilla/5.0 (X11; Linux x86_64) AppleWebKit/537.36 (KHTML, like Gecko) draw.io/21.2.8 Chrome/112.0.5615.165 Electron/24.2.0 Safari/537.36" etag="ZqMrAaRX5d3VGb2JEqzX" version="21.2.8" type="device">
  <diagram name="Pagina-1" id="vcszDZ3Zly-Wka3lGSNT">
    <mxGraphModel dx="989" dy="600" grid="1" gridSize="10" guides="1" tooltips="1" connect="1" arrows="1" fold="1" page="1" pageScale="1" pageWidth="827" pageHeight="1169" math="0" shadow="0">
      <root>
        <mxCell id="0" />
        <mxCell id="1" parent="0" />
        <mxCell id="VmN0QvgAWM0W6R0eIUKQ-1" value="" style="rounded=0;whiteSpace=wrap;html=1;sketch=1;curveFitting=1;jiggle=2;shadow=0;fillColor=none;" vertex="1" parent="1">
          <mxGeometry x="80" y="20" width="120" height="60" as="geometry" />
        </mxCell>
        <mxCell id="VmN0QvgAWM0W6R0eIUKQ-2" value="&lt;font face=&quot;Verdana&quot;&gt;/bin/sh&lt;/font&gt;" style="text;html=1;strokeColor=none;fillColor=none;align=center;verticalAlign=middle;whiteSpace=wrap;rounded=0;" vertex="1" parent="1">
          <mxGeometry x="110" y="35" width="60" height="30" as="geometry" />
        </mxCell>
        <mxCell id="VmN0QvgAWM0W6R0eIUKQ-3" value="" style="endArrow=none;dashed=1;html=1;rounded=0;sketch=1;curveFitting=1;jiggle=2;shadow=0;" edge="1" parent="1">
          <mxGeometry width="50" height="50" relative="1" as="geometry">
            <mxPoint x="80" y="200" as="sourcePoint" />
            <mxPoint x="440" y="200" as="targetPoint" />
          </mxGeometry>
        </mxCell>
        <mxCell id="VmN0QvgAWM0W6R0eIUKQ-4" value="wait" style="text;html=1;strokeColor=none;fillColor=none;align=center;verticalAlign=middle;whiteSpace=wrap;rounded=0;" vertex="1" parent="1">
          <mxGeometry x="80" y="170" width="60" height="30" as="geometry" />
        </mxCell>
        <mxCell id="VmN0QvgAWM0W6R0eIUKQ-8" value="fork" style="text;html=1;strokeColor=none;fillColor=none;align=center;verticalAlign=middle;whiteSpace=wrap;rounded=0;" vertex="1" parent="1">
          <mxGeometry x="170" y="90" width="60" height="30" as="geometry" />
        </mxCell>
        <mxCell id="VmN0QvgAWM0W6R0eIUKQ-9" value="" style="endArrow=none;html=1;sketch=1;curveFitting=1;jiggle=2;rounded=0;entryX=0.823;entryY=1.01;entryDx=0;entryDy=0;entryPerimeter=0;shadow=0;strokeColor=default;" edge="1" parent="1" source="VmN0QvgAWM0W6R0eIUKQ-5" target="VmN0QvgAWM0W6R0eIUKQ-1">
          <mxGeometry width="50" height="50" relative="1" as="geometry">
            <mxPoint x="250" y="160" as="sourcePoint" />
            <mxPoint x="300" y="110" as="targetPoint" />
            <Array as="points">
              <mxPoint x="180" y="140" />
            </Array>
          </mxGeometry>
        </mxCell>
        <mxCell id="VmN0QvgAWM0W6R0eIUKQ-12" value="cmd1; cmd2; cmd3" style="text;html=1;strokeColor=none;fillColor=none;align=center;verticalAlign=middle;whiteSpace=wrap;rounded=0;" vertex="1" parent="1">
          <mxGeometry x="210" y="35" width="110" height="30" as="geometry" />
        </mxCell>
        <mxCell id="VmN0QvgAWM0W6R0eIUKQ-14" value="" style="group" vertex="1" connectable="0" parent="1">
          <mxGeometry x="200" y="120" width="80" height="80" as="geometry" />
        </mxCell>
        <mxCell id="VmN0QvgAWM0W6R0eIUKQ-10" value="" style="endArrow=none;html=1;rounded=0;sketch=1;curveFitting=1;jiggle=2;" edge="1" parent="VmN0QvgAWM0W6R0eIUKQ-14">
          <mxGeometry width="50" height="50" relative="1" as="geometry">
            <mxPoint x="40" y="80" as="sourcePoint" />
            <mxPoint x="40" y="40" as="targetPoint" />
          </mxGeometry>
        </mxCell>
        <mxCell id="VmN0QvgAWM0W6R0eIUKQ-13" value="" style="group" vertex="1" connectable="0" parent="VmN0QvgAWM0W6R0eIUKQ-14">
          <mxGeometry width="80" height="40" as="geometry" />
        </mxCell>
        <mxCell id="VmN0QvgAWM0W6R0eIUKQ-5" value="" style="rounded=0;whiteSpace=wrap;html=1;sketch=1;curveFitting=1;jiggle=2;glass=0;shadow=0;fillColor=none;" vertex="1" parent="VmN0QvgAWM0W6R0eIUKQ-13">
          <mxGeometry width="80" height="40" as="geometry" />
        </mxCell>
        <mxCell id="VmN0QvgAWM0W6R0eIUKQ-6" value="cmd1" style="text;html=1;strokeColor=none;fillColor=none;align=center;verticalAlign=middle;whiteSpace=wrap;rounded=0;" vertex="1" parent="VmN0QvgAWM0W6R0eIUKQ-13">
          <mxGeometry x="10" y="5" width="60" height="30" as="geometry" />
        </mxCell>
        <mxCell id="VmN0QvgAWM0W6R0eIUKQ-16" value="" style="group" vertex="1" connectable="0" parent="1">
          <mxGeometry x="280" y="240" width="80" height="80" as="geometry" />
        </mxCell>
        <mxCell id="VmN0QvgAWM0W6R0eIUKQ-17" value="" style="endArrow=none;html=1;rounded=0;sketch=1;curveFitting=1;jiggle=2;" edge="1" parent="VmN0QvgAWM0W6R0eIUKQ-16">
          <mxGeometry width="50" height="50" relative="1" as="geometry">
            <mxPoint x="40" y="80" as="sourcePoint" />
            <mxPoint x="40" y="40" as="targetPoint" />
          </mxGeometry>
        </mxCell>
        <mxCell id="VmN0QvgAWM0W6R0eIUKQ-18" value="" style="group" vertex="1" connectable="0" parent="VmN0QvgAWM0W6R0eIUKQ-16">
          <mxGeometry width="80" height="40" as="geometry" />
        </mxCell>
        <mxCell id="VmN0QvgAWM0W6R0eIUKQ-19" value="" style="rounded=0;whiteSpace=wrap;html=1;sketch=1;curveFitting=1;jiggle=2;glass=0;shadow=0;fillColor=none;" vertex="1" parent="VmN0QvgAWM0W6R0eIUKQ-18">
          <mxGeometry width="80" height="40" as="geometry" />
        </mxCell>
        <mxCell id="VmN0QvgAWM0W6R0eIUKQ-20" value="cmd2" style="text;html=1;strokeColor=none;fillColor=none;align=center;verticalAlign=middle;whiteSpace=wrap;rounded=0;" vertex="1" parent="VmN0QvgAWM0W6R0eIUKQ-18">
          <mxGeometry x="10" y="5" width="60" height="30" as="geometry" />
        </mxCell>
        <mxCell id="VmN0QvgAWM0W6R0eIUKQ-25" value="" style="endArrow=none;html=1;rounded=0;exitX=0.952;exitY=1.026;exitDx=0;exitDy=0;exitPerimeter=0;entryX=0;entryY=0.5;entryDx=0;entryDy=0;sketch=1;curveFitting=1;jiggle=2;" edge="1" parent="1" source="VmN0QvgAWM0W6R0eIUKQ-4" target="VmN0QvgAWM0W6R0eIUKQ-19">
          <mxGeometry width="50" height="50" relative="1" as="geometry">
            <mxPoint x="150" y="270" as="sourcePoint" />
            <mxPoint x="200" y="220" as="targetPoint" />
          </mxGeometry>
        </mxCell>
        <mxCell id="VmN0QvgAWM0W6R0eIUKQ-26" value="fork" style="text;html=1;strokeColor=none;fillColor=none;align=center;verticalAlign=middle;whiteSpace=wrap;rounded=0;" vertex="1" parent="1">
          <mxGeometry x="200" y="210" width="60" height="30" as="geometry" />
        </mxCell>
        <mxCell id="VmN0QvgAWM0W6R0eIUKQ-27" value="" style="group" vertex="1" connectable="0" parent="1">
          <mxGeometry x="80" y="290" width="360" height="30" as="geometry" />
        </mxCell>
        <mxCell id="VmN0QvgAWM0W6R0eIUKQ-15" value="" style="endArrow=none;dashed=1;html=1;rounded=0;sketch=1;curveFitting=1;jiggle=2;shadow=0;" edge="1" parent="VmN0QvgAWM0W6R0eIUKQ-27">
          <mxGeometry width="50" height="50" relative="1" as="geometry">
            <mxPoint y="30" as="sourcePoint" />
            <mxPoint x="360" y="30" as="targetPoint" />
          </mxGeometry>
        </mxCell>
        <mxCell id="VmN0QvgAWM0W6R0eIUKQ-21" value="wait" style="text;html=1;strokeColor=none;fillColor=none;align=center;verticalAlign=middle;whiteSpace=wrap;rounded=0;" vertex="1" parent="VmN0QvgAWM0W6R0eIUKQ-27">
          <mxGeometry width="60" height="30" as="geometry" />
        </mxCell>
        <mxCell id="VmN0QvgAWM0W6R0eIUKQ-28" value="" style="group" vertex="1" connectable="0" parent="1">
          <mxGeometry x="80" y="410" width="360" height="30" as="geometry" />
        </mxCell>
        <mxCell id="VmN0QvgAWM0W6R0eIUKQ-29" value="" style="endArrow=none;dashed=1;html=1;rounded=0;sketch=1;curveFitting=1;jiggle=2;shadow=0;" edge="1" parent="VmN0QvgAWM0W6R0eIUKQ-28">
          <mxGeometry width="50" height="50" relative="1" as="geometry">
            <mxPoint y="30" as="sourcePoint" />
            <mxPoint x="360" y="30" as="targetPoint" />
          </mxGeometry>
        </mxCell>
        <mxCell id="VmN0QvgAWM0W6R0eIUKQ-30" value="wait" style="text;html=1;strokeColor=none;fillColor=none;align=center;verticalAlign=middle;whiteSpace=wrap;rounded=0;" vertex="1" parent="VmN0QvgAWM0W6R0eIUKQ-28">
          <mxGeometry width="60" height="30" as="geometry" />
        </mxCell>
        <mxCell id="VmN0QvgAWM0W6R0eIUKQ-31" value="" style="group" vertex="1" connectable="0" parent="1">
          <mxGeometry x="360" y="360" width="80" height="80" as="geometry" />
        </mxCell>
        <mxCell id="VmN0QvgAWM0W6R0eIUKQ-32" value="" style="endArrow=none;html=1;rounded=0;sketch=1;curveFitting=1;jiggle=2;" edge="1" parent="VmN0QvgAWM0W6R0eIUKQ-31">
          <mxGeometry width="50" height="50" relative="1" as="geometry">
            <mxPoint x="40" y="80" as="sourcePoint" />
            <mxPoint x="40" y="40" as="targetPoint" />
          </mxGeometry>
        </mxCell>
        <mxCell id="VmN0QvgAWM0W6R0eIUKQ-33" value="" style="group" vertex="1" connectable="0" parent="VmN0QvgAWM0W6R0eIUKQ-31">
          <mxGeometry width="80" height="40" as="geometry" />
        </mxCell>
        <mxCell id="VmN0QvgAWM0W6R0eIUKQ-34" value="" style="rounded=0;whiteSpace=wrap;html=1;sketch=1;curveFitting=1;jiggle=2;glass=0;shadow=0;fillColor=none;" vertex="1" parent="VmN0QvgAWM0W6R0eIUKQ-33">
          <mxGeometry width="80" height="40" as="geometry" />
        </mxCell>
        <mxCell id="VmN0QvgAWM0W6R0eIUKQ-35" value="cmd3" style="text;html=1;strokeColor=none;fillColor=none;align=center;verticalAlign=middle;whiteSpace=wrap;rounded=0;" vertex="1" parent="VmN0QvgAWM0W6R0eIUKQ-33">
          <mxGeometry x="10" y="5" width="60" height="30" as="geometry" />
        </mxCell>
        <mxCell id="VmN0QvgAWM0W6R0eIUKQ-38" value="" style="endArrow=none;html=1;rounded=0;entryX=0.5;entryY=1;entryDx=0;entryDy=0;exitX=1;exitY=1;exitDx=0;exitDy=0;sketch=1;curveFitting=1;jiggle=2;" edge="1" parent="1" source="VmN0QvgAWM0W6R0eIUKQ-30" target="VmN0QvgAWM0W6R0eIUKQ-1">
          <mxGeometry width="50" height="50" relative="1" as="geometry">
            <mxPoint x="20" y="310" as="sourcePoint" />
            <mxPoint x="70" y="260" as="targetPoint" />
          </mxGeometry>
        </mxCell>
        <mxCell id="VmN0QvgAWM0W6R0eIUKQ-39" value="" style="endArrow=none;html=1;rounded=0;exitX=0;exitY=0.5;exitDx=0;exitDy=0;sketch=1;curveFitting=1;jiggle=2;" edge="1" parent="1" source="VmN0QvgAWM0W6R0eIUKQ-34">
          <mxGeometry width="50" height="50" relative="1" as="geometry">
            <mxPoint x="20" y="310" as="sourcePoint" />
            <mxPoint x="140" y="320" as="targetPoint" />
          </mxGeometry>
        </mxCell>
        <mxCell id="VmN0QvgAWM0W6R0eIUKQ-43" value="" style="endArrow=classic;html=1;rounded=0;entryX=0;entryY=0.5;entryDx=0;entryDy=0;sketch=1;curveFitting=1;jiggle=2;" edge="1" parent="1" target="VmN0QvgAWM0W6R0eIUKQ-1">
          <mxGeometry width="50" height="50" relative="1" as="geometry">
            <mxPoint x="140" y="440" as="sourcePoint" />
            <mxPoint x="220" y="170" as="targetPoint" />
            <Array as="points">
              <mxPoint x="140" y="460" />
              <mxPoint x="40" y="460" />
              <mxPoint x="40" y="270" />
              <mxPoint x="40" y="160" />
              <mxPoint x="40" y="50" />
            </Array>
          </mxGeometry>
        </mxCell>
        <mxCell id="VmN0QvgAWM0W6R0eIUKQ-44" value="fork" style="text;html=1;strokeColor=none;fillColor=none;align=center;verticalAlign=middle;whiteSpace=wrap;rounded=0;" vertex="1" parent="1">
          <mxGeometry x="250" y="330" width="60" height="30" as="geometry" />
        </mxCell>
      </root>
    </mxGraphModel>
  </diagram>
</mxfile>
